<svg xmlns="http://www.w3.org/2000/svg" version="1.1" xmlns:xlink="http://www.w3.org/1999/xlink" xmlns:svgjs="http://svgjs.dev/svgjs" width="1200" height="560" preserveAspectRatio="none" viewBox="0 0 1200 560"><g mask="url(&quot;#SvgjsMask1014&quot;)" fill="none"><rect width="1200" height="560" x="0" y="0" fill="#0e2a47"></rect><path d="M771.26 27.77 a9.4 9.4 0 1 0 18.8 0 a9.4 9.4 0 1 0 -18.8 0z" stroke="rgba(83, 98, 73, 0.65)"></path><path d="M1187.73 368.99L1240.16 368.99L1240.16 421.42L1187.73 421.42z" stroke="rgba(137, 97, 97, 0.28)"></path><path d="M623.36 206.28 a48.05 48.05 0 1 0 96.1 0 a48.05 48.05 0 1 0 -96.1 0z" stroke="rgba(137, 97, 97, 0.28)"></path><path d="M485.14 60.02 a22.3 22.3 0 1 0 44.6 0 a22.3 22.3 0 1 0 -44.6 0z" stroke="rgba(137, 97, 97, 0.28)"></path><path d="M543.14 339.47a10.49 10.49 0 1 0 20.72 3.34z" stroke="rgba(83, 98, 73, 0.65)"></path><path d="M72.56 375.18a24.64 24.64 0 1 0 14.16 47.2z" stroke="rgba(83, 98, 73, 0.65)"></path><path d="M165.1 473.8L217.82 473.8L217.82 476.82L165.1 476.82z" stroke="rgba(3, 72, 123, 0.5)"></path><path d="M660.51 530.3a0.51 0.51 0 1 0 0.74-0.7z" stroke="rgba(137, 97, 97, 0.28)"></path><path d="M164.44 6.91 a32.32 32.32 0 1 0 64.64 0 a32.32 32.32 0 1 0 -64.64 0z" fill="rgba(83, 98, 73, 0.65)"></path><path d="M557.14 491.92a55.12 55.12 0 1 0 103.8-37.11z" fill="rgba(137, 97, 97, 0.28)"></path><path d="M224.27 357.42L237.29 357.42L237.29 370.44L224.27 370.44z" stroke="rgba(3, 72, 123, 0.5)"></path><path d="M1076.48 57.41L1095.26 57.41L1095.26 76.19L1076.48 76.19z" stroke="rgba(137, 97, 97, 0.28)"></path><path d="M629.99 488.37a10.27 10.27 0 1 0-16.12-12.72z" fill="rgba(83, 98, 73, 0.65)"></path><path d="M460.8 370.37a50.95 50.95 0 1 0-53.08-86.99z" stroke="rgba(3, 72, 123, 0.5)"></path><path d="M108.16 85.93a25.7 25.7 0 1 0-34.89 37.75z" stroke="rgba(137, 97, 97, 0.28)"></path><path d="M90.2 370.29 a53.46 53.46 0 1 0 106.92 0 a53.46 53.46 0 1 0 -106.92 0z" fill="rgba(137, 97, 97, 0.28)"></path><path d="M338.48 191.31 a25.29 25.29 0 1 0 50.58 0 a25.29 25.29 0 1 0 -50.58 0z" fill="rgba(83, 98, 73, 0.65)"></path><path d="M256.2 248.22L294.94 248.22L294.94 286.96L256.2 286.96z" fill="rgba(137, 97, 97, 0.28)"></path><path d="M59.39 437.92a42.95 42.95 0 1 0 38.95-76.56z" fill="rgba(137, 97, 97, 0.28)"></path><path d="M202.67 459.31a50.18 50.18 0 1 0 100.28-3.78z" stroke="rgba(3, 72, 123, 0.5)"></path><path d="M457 300.54 a13.25 13.25 0 1 0 26.5 0 a13.25 13.25 0 1 0 -26.5 0z" stroke="rgba(3, 72, 123, 0.5)"></path><path d="M380.68 116.76a10.25 10.25 0 1 0-19.99-4.54z" stroke="rgba(83, 98, 73, 0.65)"></path><path d="M73.06 233.79L89.25 233.79L89.25 256.55L73.06 256.55z" fill="rgba(83, 98, 73, 0.65)"></path><path d="M1013.8 121.67a39.9 39.9 0 1 0 42.74 67.4z" fill="rgba(83, 98, 73, 0.65)"></path><path d="M1087.1 437.56L1130.87 437.56L1130.87 458.75L1087.1 458.75z" stroke="rgba(83, 98, 73, 0.65)"></path><path d="M85.54 188.81 a32.52 32.52 0 1 0 65.04 0 a32.52 32.52 0 1 0 -65.04 0z" fill="rgba(83, 98, 73, 0.65)"></path><path d="M992.91 69.97L1043.63 69.97L1043.63 98.84L992.91 98.84z" fill="rgba(137, 97, 97, 0.28)"></path></g><defs><mask id="SvgjsMask1014"><rect width="1200" height="560" fill="#ffffff"></rect></mask></defs></svg>