<svg xmlns="http://www.w3.org/2000/svg" version="1.1" xmlns:xlink="http://www.w3.org/1999/xlink" xmlns:svgjs="http://svgjs.dev/svgjs" width="1440" height="560" preserveAspectRatio="none" viewBox="0 0 1440 560"><g mask="url(&quot;#SvgjsMask1051&quot;)" fill="none"><rect width="1440" height="560" x="0" y="0" fill="rgba(184, 201, 191, 1)"></rect><path d="M0,375.648C69.812,375.749,132.095,334.008,186.696,290.505C237.445,250.071,260.921,188.894,299.697,136.867C351.051,67.964,442.642,20.535,451.603,-64.931C460.732,-151.998,400.224,-231.042,345.432,-299.319C289.102,-369.513,224.882,-456.463,134.933,-459.539C43.237,-462.675,-7.286,-348.834,-92.284,-314.289C-164.449,-284.96,-260.74,-328.377,-317.931,-275.489C-375.057,-222.662,-373.913,-131.581,-373.996,-53.773C-374.071,16.582,-352.091,83.646,-318.38,145.399C-286.463,203.866,-240.325,250.933,-186.35,289.967C-129.806,330.859,-69.781,375.547,0,375.648" fill="#a4baad"></path><path d="M1440 1128.737C1547.023 1125.267 1642.492 1072.962 1734.976 1018.992 1831.183 962.85 1941.137 911.3140000000001 1986.7350000000001 809.685 2032.259 708.222 2013.694 587.44 1975.455 483.01300000000003 1941.239 389.574 1852.184 334.48400000000004 1785.636 260.504 1720.592 188.19600000000003 1681.883 81.423 1588.813 53.18900000000002 1495.649 24.92700000000002 1400.505 81.096 1309.663 116.113 1225.718 148.47199999999998 1150.307 191.55900000000003 1081.01 248.933 999.704 316.25 886.676 373.802 872.141 478.354 857.602 582.933 965.999 660.397 1010.4970000000001 756.1469999999999 1054.6019999999999 851.05 1053.42 969.9490000000001 1132.471 1038.525 1214.836 1109.976 1331.019 1132.27 1440 1128.737" fill="#ccd8d1"></path></g><defs><mask id="SvgjsMask1051"><rect width="1440" height="560" fill="#ffffff"></rect></mask></defs></svg>